<svg width="37" height="32" viewBox="0 0 37 32" fill="none" xmlns="http://www.w3.org/2000/svg">
<path id="Vector" d="M1 13.8571V24.1433C1 26.5435 1 27.743 1.42386 28.6597C1.7967 29.4662 2.3912 30.1225 3.12294 30.5333C3.954 31 5.04249 31 7.21621 31H29.7838C31.9575 31 33.0444 31 33.8755 30.5333C34.6072 30.1225 35.2037 29.4662 35.5766 28.6597C36 27.7439 36 26.5461 36 24.1505V13.8571M1 13.8571V9.57143M1 13.8571H36M1 9.57143V7.85756C1 5.45734 1 4.25633 1.42386 3.33956C1.7967 2.53316 2.3912 1.878 3.12294 1.46711C3.95482 1 5.04462 1 7.2226 1H29.7782C31.9561 1 33.0436 1 33.8755 1.46711C34.6072 1.878 35.2037 2.53316 35.5766 3.33956C36 4.25543 36 5.45499 36 7.85052V9.57143M1 9.57143H36M8.77778 22.4286H16.5556M36 13.8571V9.57143" stroke="black" stroke-width="2" stroke-linecap="round" stroke-linejoin="round"/>
</svg>
