<svg width="38" height="38" viewBox="0 0 38 38" fill="none" xmlns="http://www.w3.org/2000/svg">
<path id="Vector" fill-rule="evenodd" clip-rule="evenodd" d="M23.7059 10.6836C22.8568 10.6648 22.1634 11.0236 20.7306 12.2458C20.3244 12.5943 19.9386 12.8638 19.8694 12.8459C19.6619 12.7924 18.9968 13.0003 18.642 13.4358C18.457 13.6623 18.143 13.9397 17.9416 14.0669C17.2019 14.6457 17.9454 14.8691 16.2595 16.1736C13.6994 18.1697 12.6096 19.2064 12.367 19.8606C12.0737 20.6705 9.55265 24.7219 9.63304 25.5544C9.68311 26.1366 10.2877 26.4085 11.2783 26.3689C13.0565 26.3005 16.5729 24.8885 17.2613 24.5495C18.1435 24.1129 21.0928 21.0576 21.3425 21.1115C21.6218 21.1729 22.2665 21.0441 22.3908 20.9707C22.9628 20.6334 24.8212 18.783 25.0851 18.2502C25.1957 18.0258 25.1826 17.7904 25.254 17.5137C25.2974 17.3456 25.644 17.024 26.2839 16.5459C27.5611 15.5998 27.5786 15.5727 27.3113 14.2387C26.8163 11.9077 25.6416 10.7402 23.7059 10.6836ZM24.8733 11.5119C25.6698 11.9387 26.2967 12.8595 26.5388 13.9235C26.7662 14.9626 26.6185 15.1669 24.6295 16.6252C24.5797 16.6545 24.5274 16.3669 24.4183 16.0541C24.0066 14.8304 23.0761 13.7786 21.6046 13.2303C21.0368 13.0206 20.8398 13.2122 22.2148 12.0911C22.6957 11.6985 22.9721 11.4852 23.1735 11.358C23.5093 11.16 24.131 11.1201 24.8733 11.5119ZM21.7597 14.0188C23.0188 14.8181 23.4292 15.2296 23.8448 16.9287C24.1114 18.0201 24.09 17.8986 23.3258 18.4499C23.027 18.668 23.0073 18.6629 22.984 18.4672C22.9177 17.7437 22.8118 17.3369 22.3886 16.6479C21.5803 15.4906 21.2324 15.6539 21.8227 16.8393C22.4933 18.2036 22.5252 18.897 21.9453 19.6329C21.6029 20.0612 21.4014 20.1884 21.4055 19.9681C21.377 17.5044 20.2555 16.1714 18.7493 15.6352C18.1221 15.4102 18.0714 15.239 18.5293 14.9354C18.8079 14.7542 19.0961 14.9446 19.8416 15.2423C20.1748 15.381 20.317 14.9117 19.957 14.7134C19.4861 14.4548 19.3613 14.2435 19.8998 13.7498C20.3908 13.3178 20.7371 13.3649 21.7597 14.0188ZM20.7081 14.2535C20.4898 14.3237 20.3765 14.5581 20.9604 14.9511C21.5171 15.3267 21.8742 15.2501 21.9456 14.9734C21.9737 14.8647 21.938 14.6762 21.6864 14.5481C21.3535 14.3673 20.8348 14.2124 20.7081 14.2535ZM19.1249 16.3857C19.2158 16.483 19.2231 16.4954 18.7172 16.9447C17.4735 18.047 16.9751 18.4666 16.6292 18.7042C16.4375 18.834 15.9715 19.2514 15.5898 19.6274C14.3525 20.8684 13.4815 21.1392 13.344 20.3235C13.2917 20.036 13.3978 19.7471 13.6047 19.5579C14.198 19.0152 17.437 15.9819 18.0386 15.979C18.5363 15.9703 18.9849 16.2337 19.1249 16.3857ZM20.131 17.2672C20.666 18.217 20.6399 18.7269 19.8856 19.2808C18.4789 20.32 16.2146 22.15 15.4175 22.4609C14.8787 22.6698 14.9061 21.6647 15.1876 21.1049C15.5622 20.3476 16.5122 19.4436 18.4972 17.879C19.6405 16.9616 19.8474 16.7725 20.131 17.2672ZM20.5192 19.9714C20.4927 20.1964 20.5349 20.5235 20.2134 20.7886C19.9842 20.9824 19.2085 21.7416 18.5875 22.351C17.5099 23.4223 16.3047 24.0075 16.2817 23.7697C16.2517 23.4773 17.1415 22.3575 17.8515 21.7711C19.6226 20.341 20.615 19.0684 20.5192 19.9714ZM14.2075 21.7165C14.0357 22.505 14.4135 22.9609 15.2381 22.9522C15.7654 22.9513 15.768 22.9413 15.4504 23.3549C15.308 23.5395 15.1821 23.8233 15.161 23.9866C15.1288 24.3157 15.0099 24.3271 14.1239 24.6151C13.9973 24.6562 13.8665 24.5908 13.8254 24.4643C13.5856 23.7593 13.1111 23.3101 12.5139 23.0506C11.9167 22.7911 11.9282 22.9101 12.371 21.9701L12.7459 21.1708C12.8744 21.2039 13.3208 21.435 13.8166 21.3521C14.0248 21.3215 14.2429 21.2934 14.2429 21.2934C14.2429 21.2934 14.2636 21.499 14.2075 21.7165Z" fill="black" fill-opacity="0.8"/>
</svg>
