<svg width="15" height="16" viewBox="0 0 15 16" fill="none" xmlns="http://www.w3.org/2000/svg">
<path id="Vector" d="M10.875 14.2501C8.32331 14.2468 5.87707 13.2316 4.07275 11.4273C2.26843 9.623 1.25331 7.17676 1.25 4.62507C1.25 3.86257 1.5529 3.13131 2.09207 2.59214C2.63124 2.05297 3.3625 1.75007 4.125 1.75007C4.28646 1.74884 4.44766 1.7635 4.60625 1.79382C4.75957 1.81651 4.91029 1.85419 5.05625 1.90632C5.1589 1.94234 5.25038 2.00453 5.32163 2.08674C5.39288 2.16895 5.44144 2.26834 5.4625 2.37507L6.31875 6.12507C6.34183 6.22686 6.33905 6.33281 6.31066 6.43325C6.28228 6.53369 6.22919 6.62542 6.15625 6.70007C6.075 6.78757 6.06875 6.79382 5.3 7.19382C5.91562 8.54436 6.99575 9.62892 8.34375 10.2501C8.75 9.47507 8.75625 9.46882 8.84375 9.38757C8.9184 9.31463 9.01013 9.26154 9.11057 9.23316C9.21101 9.20477 9.31696 9.20199 9.41875 9.22507L13.1687 10.0813C13.2721 10.1053 13.3676 10.1552 13.4463 10.2262C13.525 10.2973 13.5844 10.3872 13.6187 10.4876C13.6715 10.6359 13.7112 10.7886 13.7375 10.9438C13.7627 11.1009 13.7752 11.2597 13.775 11.4188C13.7635 12.1781 13.4521 12.9019 12.9087 13.4324C12.3654 13.9628 11.6343 14.2568 10.875 14.2501Z" fill="#E29A12"/>
</svg>
