<svg width="289" height="235" viewBox="0 0 289 235" fill="none" xmlns="http://www.w3.org/2000/svg">
<path fill-rule="evenodd" clip-rule="evenodd" d="M94.9266 123.481H24.0625C17.6807 123.481 11.5604 120.879 7.04776 116.248C2.53516 111.616 6.86874e-06 105.335 6.31083e-06 98.7848L0 24.6962C-5.57911e-07 18.1464 2.53515 11.8648 7.04775 7.23336C11.5603 2.60193 17.6807 7.04963e-06 24.0625 6.47703e-06L96.25 0C102.632 -5.72603e-07 108.752 2.60192 113.265 7.23335C117.777 11.8648 120.313 18.1464 120.313 24.6962L120.313 106.811C120.305 129.169 114.921 151.179 104.637 170.889C94.3526 190.598 79.4871 207.398 61.3594 219.796L39.7031 234.614L26.5891 214.116L48.125 199.298C60.6336 190.695 71.2564 179.509 79.315 166.454C87.3735 153.4 92.6906 138.764 94.9266 123.481ZM263.364 123.481H192.5C186.118 123.481 179.998 120.879 175.485 116.248C170.973 111.616 168.438 105.335 168.438 98.7848L168.437 24.6962C168.437 18.1464 170.973 11.8648 175.485 7.23336C179.998 2.60193 186.118 7.04963e-06 192.5 6.47703e-06L264.687 0C271.069 -5.72603e-07 277.19 2.60192 281.702 7.23335C286.215 11.8648 288.75 18.1464 288.75 24.6962L288.75 106.811C288.743 129.169 283.358 151.179 273.074 170.889C262.79 190.598 247.925 207.398 229.797 219.796L208.261 234.614L195.027 214.116L216.563 199.298C229.071 190.695 239.694 179.509 247.752 166.454C255.811 153.4 261.128 138.764 263.364 123.481Z" fill="black" fill-opacity="1"/>
</svg>
