<svg width="40" height="40" viewBox="0 0 40 40" fill="none" xmlns="http://www.w3.org/2000/svg">
<path fill-rule="evenodd" clip-rule="evenodd" d="M35 18.3333C35 19.8865 35 20.663 34.7463 21.2756C34.4079 22.0924 33.759 22.7413 32.9423 23.0796C32.3297 23.3333 31.5531 23.3333 30 23.3333H28.8743C27.9059 23.3333 27.4217 23.3333 27.0352 23.5563C26.9376 23.6126 26.8459 23.6786 26.7616 23.7534C26.4279 24.0496 26.2748 24.509 25.9686 25.4276L25.7597 26.0541C25.3931 27.1541 25.2097 27.7041 24.7732 28.0187C24.3368 28.3333 23.757 28.3333 22.5975 28.3333H17.4025C16.243 28.3333 15.6632 28.3333 15.2267 28.0187C14.7903 27.7041 14.6069 27.1541 14.2403 26.0541L14.2403 26.0541L14.0314 25.4276C13.7252 24.509 13.5721 24.0496 13.2384 23.7534C13.1541 23.6786 13.0624 23.6126 12.9648 23.5563C12.5783 23.3333 12.0941 23.3333 11.1257 23.3333H10C8.44686 23.3333 7.67029 23.3333 7.05772 23.0796C6.24096 22.7413 5.59205 22.0924 5.25373 21.2756C5 20.663 5 19.8865 5 18.3333V26.6666C5 31.3807 5 33.7377 6.46447 35.2022C7.92893 36.6666 10.286 36.6666 15 36.6666H25C29.714 36.6666 32.0711 36.6666 33.5355 35.2022C35 33.7377 35 31.3807 35 26.6666L35 18.3333Z" fill="#222222"/>
<path d="M26.6667 10H28.3333C31.476 10 33.0474 10 34.0237 10.9763C35 11.9526 35 13.524 35 16.6667V30C35 33.1427 35 34.714 34.0237 35.6904C33.0474 36.6667 31.476 36.6667 28.3333 36.6667H11.6667C8.52397 36.6667 6.95262 36.6667 5.97631 35.6904C5 34.714 5 33.1427 5 30V16.6667C5 13.524 5 11.9526 5.97631 10.9763C6.95262 10 8.52397 10 11.6667 10H13.3333" stroke="#222222" stroke-width="3.33333"/>
<path d="M13.3333 16.6667L20 21.6667M20 21.6667L26.6666 16.6667M20 21.6667L20 5.00002" stroke="#222222" stroke-width="3.33333"/>
</svg>
