<svg width="15" height="16" viewBox="0 0 15 16" fill="none" xmlns="http://www.w3.org/2000/svg">
<path id="Vector" d="M7.5 0.5C3.35685 0.5 0 3.85685 0 8C0 12.1431 3.35685 15.5 7.5 15.5C11.6431 15.5 15 12.1431 15 8C15 3.85685 11.6431 0.5 7.5 0.5ZM7.5 14.0484C4.15827 14.0484 1.45161 11.3417 1.45161 8C1.45161 4.65827 4.15827 1.95161 7.5 1.95161C10.8417 1.95161 13.5484 4.65827 13.5484 8C13.5484 11.3417 10.8417 14.0484 7.5 14.0484ZM9.36895 10.8911L6.80141 9.0252C6.70766 8.95564 6.65323 8.84677 6.65323 8.73186V3.76613C6.65323 3.56653 6.81653 3.40323 7.01613 3.40323H7.98387C8.18347 3.40323 8.34677 3.56653 8.34677 3.76613V8.05141L10.3669 9.52117C10.5302 9.63911 10.5635 9.86593 10.4456 10.0292L9.87702 10.8125C9.75907 10.9728 9.53226 11.0091 9.36895 10.8911Z" fill="black"/>
</svg>
