<svg width="85" height="85" viewBox="0 0 85 85" fill="none" xmlns="http://www.w3.org/2000/svg">
<path id="Vector" fill-rule="evenodd" clip-rule="evenodd" d="M19.3872 42.9221C20.2988 37.8459 19.9921 37.3013 20.8926 32.2233C27.8047 33.2046 34.7291 34.0292 41.613 35.2464C44.4806 35.7534 47.394 36.6871 50.2856 37.0006C50.3641 37.0092 51.0927 31.6767 51.4659 30.1101C57.8134 35.391 64.3003 40.5501 70.3877 46.1443C63.434 49.4691 54.9717 52.6293 47.5844 55.1876C47.3953 53.587 48.1335 49.389 48.4273 47.7721C46.0881 47.0464 43.7168 46.8759 41.3123 46.4285C34.5355 45.1677 26.2336 43.6997 19.3872 42.9221Z" stroke="#E29A12" stroke-miterlimit="1.5" stroke-linecap="round" stroke-linejoin="round"/>
<path id="Vector_2" d="M66.4039 42.5995C63.9071 45.3928 61.1688 48.5382 58.5249 51.1917" stroke="#E29A12" stroke-miterlimit="1.5" stroke-linecap="round" stroke-linejoin="round"/>
<path id="Vector_3" d="M62.662 39.3833C58.6094 44.281 54.082 49.823 49.7107 54.4435" stroke="#E29A12" stroke-miterlimit="1.5" stroke-linecap="round" stroke-linejoin="round"/>
<path id="Vector_4" d="M58.9607 36.3237C55.6162 40.4072 51.7389 44.7661 48.2758 48.7506" stroke="#E29A12" stroke-miterlimit="1.5" stroke-linecap="round" stroke-linejoin="round"/>
<path id="Vector_5" d="M50.2917 36.9932C48.1236 40.0228 45.3714 43.6691 43.2743 46.7444" stroke="#E29A12" stroke-miterlimit="1.5" stroke-linecap="round" stroke-linejoin="round"/>
<path id="Vector_6" d="M44.4854 35.8677C41.7949 38.8466 39.3509 42.4752 36.844 45.6177" stroke="#E29A12" stroke-miterlimit="1.5" stroke-linecap="round" stroke-linejoin="round"/>
<path id="Vector_7" d="M38.7195 34.7611C35.9608 37.6559 33.3788 41.5184 30.7521 44.5507" stroke="#E29A12" stroke-miterlimit="1.5" stroke-linecap="round" stroke-linejoin="round"/>
<path id="Vector_8" d="M33.2489 33.938C30.8339 37.0542 28.1812 40.628 25.8035 43.7748" stroke="#E29A12" stroke-miterlimit="1.5" stroke-linecap="round" stroke-linejoin="round"/>
<path id="Vector_9" d="M27.8853 33.1846C25.277 36.1767 22.7047 39.7327 20.5039 43.0484" stroke="#E29A12" stroke-miterlimit="1.5" stroke-linecap="round" stroke-linejoin="round"/>
</svg>
