<svg width="50" height="50" viewBox="0 0 50 50" fill="none" xmlns="http://www.w3.org/2000/svg">
<g id="Vector">
<path id="Vector_2" d="M6.63469 39.2072C6.37405 40.8914 6.16374 42.6075 5.81383 44.2756C5.73172 44.6671 5.64245 45.7302 5.24358 45.952C4.73839 46.2329 4.1977 45.6087 3.92564 45.2694C3.11249 44.2547 2.52339 42.9222 1.91696 41.7704C1.79538 41.5396 1.29515 40.8434 1.36199 40.5604M5.24447 45.952C4.53856 42.8921 4.631 39.5719 4.66812 36.4478C4.74332 30.1065 3.21781 14.2078 8.52498 9.53587C11.686 6.75307 17.157 6.96349 21.0587 6.6253C30.1563 5.83646 39.506 3.92279 48.6364 3.89892" stroke="black" stroke-opacity="0.6" stroke-width="1.12179" stroke-miterlimit="1.5" stroke-linecap="round" stroke-linejoin="round"/>
</g>
</svg>
