<svg width="15" height="12" viewBox="0 0 15 12" fill="none" xmlns="http://www.w3.org/2000/svg">
<g id="&#240;&#159;&#166;&#134; icon &#34;Envelope&#34;">
<path id="Vector" d="M14.7158 4.08984C14.8301 3.99902 15 4.08398 15 4.22754V10.2188C15 10.9951 14.3701 11.625 13.5938 11.625H1.40625C0.629883 11.625 0 10.9951 0 10.2188V4.23047C0 4.08398 0.166992 4.00195 0.28418 4.09277C0.94043 4.60254 1.81055 5.25 4.79883 7.4209C5.41699 7.87207 6.45996 8.82129 7.5 8.81543C8.5459 8.82422 9.60938 7.85449 10.2041 7.4209C13.1924 5.25 14.0596 4.59961 14.7158 4.08984ZM7.5 7.875C8.17969 7.88672 9.1582 7.01953 9.65039 6.66211C13.5381 3.84082 13.834 3.59473 14.7305 2.8916C14.9004 2.75977 15 2.55469 15 2.33789V1.78125C15 1.00488 14.3701 0.375 13.5938 0.375H1.40625C0.629883 0.375 0 1.00488 0 1.78125V2.33789C0 2.55469 0.0996094 2.75684 0.269531 2.8916C1.16602 3.5918 1.46191 3.84082 5.34961 6.66211C5.8418 7.01953 6.82031 7.88672 7.5 7.875Z" fill="#E29A12"/>
</g>
</svg>
