<svg width="40" height="40" viewBox="0 0 40 40" fill="none" xmlns="http://www.w3.org/2000/svg">
<path d="M20 20L30.209 26.949C31.1209 27.5697 31.6667 28.6014 31.6667 29.7045V34.1667C31.6667 34.6269 31.2936 35 30.8333 35H9.16668C8.70644 35 8.33334 34.6269 8.33334 34.1667V29.7045C8.33334 28.6014 8.87911 27.5697 9.79104 26.949L20 20ZM20 20L30.209 13.051C31.1209 12.4303 31.6667 11.3986 31.6667 10.2955V5.83333C31.6667 5.3731 31.2936 5 30.8333 5H9.16668C8.70644 5 8.33334 5.3731 8.33334 5.83333V10.2955C8.33334 11.3986 8.87911 12.4303 9.79104 13.051L20 20Z" stroke="#33363F" stroke-width="3.33333" stroke-linecap="round" stroke-linejoin="round"/>
<path d="M25 33.6785V34.75C25 34.8881 24.8881 35 24.75 35H15.25C15.1119 35 15 34.8881 15 34.75V33.6785C15 33.4575 15.0878 33.2455 15.2441 33.0892L19.0572 29.2761C19.5779 28.7554 20.4221 28.7554 20.9428 29.2761L24.7559 33.0892C24.9122 33.2455 25 33.4575 25 33.6785Z" fill="#33363F"/>
<path d="M20 18.3333L28.3333 13.3333H11.6667L20 18.3333Z" fill="#33363F"/>
<path d="M20 30V20" stroke="#33363F" stroke-width="3.33333" stroke-linecap="round" stroke-linejoin="round"/>
</svg>
