<svg width="40" height="40" viewBox="0 0 40 40" fill="none" xmlns="http://www.w3.org/2000/svg">
<path fill-rule="evenodd" clip-rule="evenodd" d="M20 36.6666C29.2047 36.6666 36.6666 29.2047 36.6666 20C36.6666 10.7952 29.2047 3.33331 20 3.33331C10.7952 3.33331 3.33331 10.7952 3.33331 20C3.33331 29.2047 10.7952 36.6666 20 36.6666ZM16.8831 23H19.1666C19.5595 23 19.7559 23 19.8779 23.122C20 23.244 20 23.4405 20 23.8333V31.2164C20 32.7009 20 33.4431 20.327 33.5151C20.6541 33.5871 20.9659 32.9136 21.5895 31.5665L26.1418 21.7337C27.128 19.6035 27.6211 18.5384 27.1295 17.7692C26.638 17 25.4643 17 23.1169 17H20.8333C20.4405 17 20.2441 17 20.122 16.8779C20 16.7559 20 16.5595 20 16.1666V8.78351C20 7.29908 20 6.55686 19.6729 6.48483C19.3459 6.4128 19.0341 7.08633 18.4104 8.43341L13.8582 18.2662C12.872 20.3964 12.3789 21.4615 12.8704 22.2307C13.362 23 14.5357 23 16.8831 23Z" fill="#222222"/>
</svg>
