<svg width="40" height="40" viewBox="0 0 40 40" fill="none" xmlns="http://www.w3.org/2000/svg">
<circle cx="20" cy="15" r="6.66667" fill="#33363F"/>
<circle cx="28.3333" cy="15" r="5" fill="#33363F"/>
<circle cx="11.6667" cy="15" r="5" fill="#33363F"/>
<path fill-rule="evenodd" clip-rule="evenodd" d="M29.2808 30H33.1584C34.1444 30 34.9005 29.1503 34.661 28.1938C34.0473 25.7431 32.4133 21.6667 28.3334 21.6667C26.8566 21.6667 25.7002 22.2008 24.7968 22.9986C27.3097 24.6289 28.609 27.4837 29.2808 30Z" fill="#33363F"/>
<path fill-rule="evenodd" clip-rule="evenodd" d="M15.2033 22.9986C14.2998 22.2008 13.1435 21.6667 11.6667 21.6667C7.58678 21.6667 5.95275 25.7431 5.33903 28.1938C5.0995 29.1503 5.85557 30 6.84161 30H10.7192C11.391 27.4837 12.6904 24.6289 15.2033 22.9986Z" fill="#33363F"/>
<path d="M20 23.3333C26.1811 23.3333 27.7775 28.835 28.1898 31.6768C28.322 32.5877 27.5872 33.3333 26.6667 33.3333H13.3334C12.4129 33.3333 11.6781 32.5877 11.8102 31.6768C12.2225 28.835 13.8189 23.3333 20 23.3333Z" fill="#33363F"/>
</svg>
