<svg width="40" height="40" viewBox="0 0 40 40" fill="none" xmlns="http://www.w3.org/2000/svg">
<circle cx="13.3333" cy="25" r="5" fill="#222222" stroke="#222222" stroke-width="3.33333"/>
<path d="M30.3452 10.3452C30.996 9.69432 30.996 8.63905 30.3452 7.98818C29.6943 7.3373 28.639 7.3373 27.9881 7.98818L30.3452 10.3452ZM30.4881 16.1785L31.6667 17.357L34.0237 15L32.8452 13.8215L30.4881 16.1785ZM25.8333 12.5L24.6548 11.3215L24.6548 11.3215L25.8333 12.5ZM27.1548 16.1785L28.3333 17.357L30.6903 15L29.5118 13.8215L27.1548 16.1785ZM15.4881 20.4882C14.8373 21.139 14.8373 22.1943 15.4881 22.8452C16.139 23.4961 17.1943 23.4961 17.8452 22.8452L15.4881 20.4882ZM26.3215 18.6785L27.5 19.857L29.857 17.5L28.6785 16.3215L26.3215 18.6785ZM28.6785 12.0119L30.3452 10.3452L27.9881 7.98818L26.3215 9.65484L28.6785 12.0119ZM26.3215 12.0119L30.4881 16.1785L32.8452 13.8215L28.6785 9.65484L26.3215 12.0119ZM27.0118 13.6785L28.6785 12.0119L26.3215 9.65484L24.6548 11.3215L27.0118 13.6785ZM24.6548 13.6785L27.1548 16.1785L29.5118 13.8215L27.0118 11.3215L24.6548 13.6785ZM17.8452 22.8452L25.3452 15.3452L22.9881 12.9882L15.4881 20.4882L17.8452 22.8452ZM25.3452 15.3452L27.0118 13.6785L24.6548 11.3215L22.9881 12.9882L25.3452 15.3452ZM22.9881 15.3452L26.3215 18.6785L28.6785 16.3215L25.3452 12.9882L22.9881 15.3452Z" fill="#222222"/>
</svg>
