<svg width="30" height="22" viewBox="0 0 30 22" fill="none" xmlns="http://www.w3.org/2000/svg">
<path id="Vector" d="M29.3737 3.75159C29.0174 2.48651 28.0308 1.49433 26.7601 1.1436C24.4203 0.518096 15.0143 0.518096 15.0143 0.518096C15.0143 0.518096 5.62613 0.503092 3.26197 1.1436C1.99783 1.49527 1.00659 2.48651 0.653984 3.75159C0.21041 6.14951 -0.00996963 8.57651 0.000346036 11.0148C-0.0043429 13.4371 0.215099 15.8603 0.653984 18.2432C1.00659 19.5083 1.99783 20.5005 3.26197 20.8568C5.60175 21.4823 15.0143 21.4823 15.0143 21.4823C15.0143 21.4823 24.3969 21.4823 26.7601 20.8568C28.0308 20.5005 29.0174 19.5092 29.3737 18.2432C29.8042 15.8603 30.0142 13.4371 29.9992 11.0148C30.0142 8.57651 29.8089 6.14951 29.3737 3.75159ZM12.0097 15.5039V6.50587L19.8392 11.0148L12.0097 15.5039Z" fill="white"/>
</svg>
