<svg width="79" height="55" viewBox="0 0 79 55" fill="none" xmlns="http://www.w3.org/2000/svg">
<ellipse id="Ellipse 5" cx="27.2353" cy="2.35294" rx="2.35294" ry="2.35294" fill="#D39424" fill-opacity="0.5"/>
<ellipse id="Ellipse 19" cx="27.2353" cy="35.2943" rx="2.35294" ry="2.35294" fill="#D39424" fill-opacity="0.5"/>
<ellipse id="Ellipse 10" cx="27.2353" cy="18.8236" rx="2.35294" ry="2.35294" fill="#D39424" fill-opacity="0.5"/>
<ellipse id="Ellipse 20" cx="27.2353" cy="51.7646" rx="2.35294" ry="2.35294" fill="#D39424" fill-opacity="0.5"/>
<ellipse id="Ellipse 6" cx="60.1765" cy="2.35294" rx="2.35294" ry="2.35294" fill="#D39424" fill-opacity="0.5"/>
<ellipse id="Ellipse 23" cx="60.1765" cy="35.2943" rx="2.35294" ry="2.35294" fill="#D39424" fill-opacity="0.5"/>
<ellipse id="Ellipse 12" cx="60.1765" cy="18.8236" rx="2.35294" ry="2.35294" fill="#D39424" fill-opacity="0.5"/>
<ellipse id="Ellipse 24" cx="60.1765" cy="51.7646" rx="2.35294" ry="2.35294" fill="#D39424" fill-opacity="0.5"/>
<ellipse id="Ellipse 7" cx="43.7059" cy="2.35294" rx="2.35294" ry="2.35294" fill="#D39424" fill-opacity="0.5"/>
<ellipse id="Ellipse 27" cx="43.7059" cy="35.2943" rx="2.35294" ry="2.35294" fill="#D39424" fill-opacity="0.5"/>
<ellipse id="Ellipse 14" cx="43.7059" cy="18.8236" rx="2.35294" ry="2.35294" fill="#D39424" fill-opacity="0.5"/>
<ellipse id="Ellipse 28" cx="43.7059" cy="51.7646" rx="2.35294" ry="2.35294" fill="#D39424" fill-opacity="0.5"/>
<ellipse id="Ellipse 4" cx="10.7647" cy="2.35294" rx="2.35294" ry="2.35294" fill="#D39424" fill-opacity="0.5"/>
<ellipse id="Ellipse 29" cx="10.7647" cy="35.2943" rx="2.35294" ry="2.35294" fill="#D39424" fill-opacity="0.5"/>
<ellipse id="Ellipse 15" cx="10.7647" cy="18.8236" rx="2.35294" ry="2.35294" fill="#D39424" fill-opacity="0.5"/>
<ellipse id="Ellipse 30" cx="10.7647" cy="51.7646" rx="2.35294" ry="2.35294" fill="#D39424" fill-opacity="0.5"/>
<ellipse id="Ellipse 8" cx="76.6471" cy="2.35294" rx="2.35294" ry="2.35294" fill="#D39424" fill-opacity="0.5"/>
<ellipse id="Ellipse 31" cx="76.6471" cy="35.2943" rx="2.35294" ry="2.35294" fill="#D39424" fill-opacity="0.5"/>
<ellipse id="Ellipse 16" cx="76.6471" cy="18.8236" rx="2.35294" ry="2.35294" fill="#D39424" fill-opacity="0.5"/>
<ellipse id="Ellipse 32" cx="76.6471" cy="51.7646" rx="2.35294" ry="2.35294" fill="#D39424" fill-opacity="0.5"/>
</svg>
