<svg width="80" height="80" viewBox="0 0 80 80" fill="none" xmlns="http://www.w3.org/2000/svg">
<g id="Sketch-annotation-element-stroke-line-arrow-spiral-down-5">
<path id="Vector" d="M62.7273 53.9816C61.4691 56.2613 59.7085 59.2938 58.0996 61.3025M58.0996 61.3025C57.9143 61.5341 56.6654 59.6919 56.615 59.6021C55.5076 57.6336 54.6919 55.5805 53.9053 53.4703M58.0996 61.3025C62.051 47.7159 56.6855 34.4544 47.4785 30.3323C46.5659 29.9237 45.5723 29.48 44.5435 29.1266M44.5435 29.1266C42.9051 28.5639 41.1774 28.2303 39.5459 28.6327C38.0402 29.0042 36.2351 30.1224 35.7992 31.6853C34.9849 34.6049 38.2675 36.9258 40.9849 35.8534C43.3729 34.911 45.1817 31.5848 44.5435 29.1266ZM44.5435 29.1266C44.53 29.0748 44.5155 29.0233 44.4998 28.9722C40.7206 16.6506 25.5687 16.4463 17.3548 23.0615" stroke="black" stroke-opacity="0.6" stroke-miterlimit="1.5" stroke-linecap="round" stroke-linejoin="round"/>
</g>
</svg>
