<svg width="150" height="20" viewBox="0 0 150 20" fill="none" xmlns="http://www.w3.org/2000/svg">
<path id="Vector" d="M115.608 0.529789V19.541L112.573 15.2801L105.745 5.691V0.458984L112.573 10.0481V0.529789H115.608Z" fill="#E29A12"/>
<path id="Vector_2" d="M103.09 0.529785V3.5643H96.2625V19.4955H93.228V0.529785H103.09Z" fill="#E29A12"/>
<path id="Vector_3" d="M31.2668 9.98227L37.8568 17.4396L35.5847 19.45L29.2413 12.2733L27.2158 9.98227L29.2413 7.69121L35.5847 0.515839L37.8568 2.52494L31.2668 9.98227Z" fill="#E29A12"/>
<path id="Vector_4" d="M23.3443 16.461L24.591 19.4955H21.3099L20.0645 16.461L18.4043 12.415L18.3715 12.3366L17.1577 9.38046H19.4121C21.9181 9.38046 21.6652 6.52928 21.6652 6.52928C21.6614 4.87926 20.2744 3.5643 18.6243 3.5643H11.602L10.3553 0.529785H19.3261C20.3578 0.529785 21.3289 0.799104 22.1709 1.27072C23.1268 1.80555 23.9196 2.60211 24.4544 3.5643C24.9336 4.42408 25.2055 5.41662 25.2055 6.47238C25.2055 7.52814 24.9336 8.52068 24.4544 9.38046C23.9196 10.3427 23.1268 11.1392 22.1709 11.6741C21.9585 11.7929 21.7373 11.8991 21.5097 11.9914L21.6842 12.415L22.1709 13.601L23.3443 16.461Z" fill="#E29A12"/>
<path id="Vector_5" d="M87.7013 16.461L88.948 19.4955H85.667L84.4215 16.461L82.7614 12.415L82.7285 12.3366L81.5147 9.38046H83.7691C86.2751 9.38046 86.0223 6.52928 86.0223 6.52928C86.0185 4.87926 84.6314 3.5643 82.9814 3.5643H75.959L74.7123 0.529785H83.6831C84.7149 0.529785 85.6859 0.799104 86.528 1.27072C87.4839 1.80555 88.2766 2.60211 88.8115 3.5643C89.2907 4.42408 89.5625 5.41662 89.5625 6.47238C89.5625 7.52814 89.2907 8.52068 88.8115 9.38046C88.2766 10.3427 87.4839 11.1392 86.528 11.6741C86.3156 11.7929 86.0943 11.8991 85.8667 11.9914L86.0412 12.415L86.528 13.601L87.7013 16.461Z" fill="#E29A12"/>
<path id="Vector_6" d="M148.139 16.461L149.385 19.4955H146.104L144.859 16.461L143.199 12.415L143.166 12.3366L141.952 9.38046H144.207C146.713 9.38046 146.46 6.52928 146.46 6.52928C146.456 4.87926 145.069 3.5643 143.419 3.5643H136.396L135.15 0.529785H144.121C145.152 0.529785 146.123 0.799104 146.965 1.27072C147.921 1.80555 148.714 2.60211 149.249 3.5643C149.728 4.42408 150 5.41662 150 6.47238C150 7.52814 149.728 8.52068 149.249 9.38046C148.714 10.3427 147.921 11.1392 146.965 11.6741C146.753 11.7929 146.532 11.8991 146.304 11.9914L146.479 12.415L146.965 13.601L148.139 16.461Z" fill="#E29A12"/>
<path id="Vector_7" d="M13.9044 15.5759H10.6233L7.75573 8.59022L3.27981 19.4955H0L6.11708 4.59604L7.75573 0.600586L9.39563 4.59604L13.9044 15.5759Z" fill="#E29A12"/>
<path id="Vector_8" d="M15.5127 19.4955H12.2329L11.4034 17.4725H14.6833L15.5127 19.4955Z" fill="#E29A12"/>
<path id="Vector_9" d="M78.1351 15.5759H74.854L71.9864 8.59022L67.5105 19.4955H64.2307L70.3477 4.59604L71.9864 0.600586L73.6263 4.59604L78.1351 15.5759Z" fill="#E29A12"/>
<path id="Vector_10" d="M79.7433 19.4955H76.4635L75.6341 17.4725H78.9139L79.7433 19.4955Z" fill="#E29A12"/>
<path id="Vector_11" d="M132.297 0.529785V3.5643H120.033L118.769 0.529785H132.297Z" fill="#E29A12"/>
<path id="Vector_12" d="M132.297 8.49539H118.769V11.5299H132.297V8.49539Z" fill="#E29A12"/>
<path id="Vector_13" d="M132.297 16.461V19.4955H118.769L120.033 16.461H132.297Z" fill="#E29A12"/>
<path id="Vector_14" d="M64.6529 6.34594C64.6529 7.35366 64.3962 8.30068 63.9461 9.12758C62.9599 10.9357 61.0418 12.1621 58.8368 12.1621H55.2965V19.4955H52.262V9.12758H58.9632C60.4994 9.12758 61.7448 7.88217 61.7448 6.34594C61.7448 4.80972 60.4994 3.5643 58.9632 3.5643H53.5263L52.262 0.529785H58.8368C61.0418 0.529785 62.9599 1.75624 63.9461 3.5643C64.3962 4.39121 64.6529 5.33823 64.6529 6.34594Z" fill="#E29A12"/>
</svg>
