<svg width="350" height="45" viewBox="0 0 350 45" fill="none" xmlns="http://www.w3.org/2000/svg">
<path d="M247.239 12.0482V1.56426L262.263 22.6645L263.17 23.9388V22.3745V0.665212H269.251V42.9608L263.078 34.2925L263.078 34.2925L247.239 12.0482Z" stroke="#E29A12"/>
<path d="M224.112 7.24509V43.9179H218.032V0.664551H240.044V6.74509H224.612H224.112V7.24509Z" stroke="#E29A12"/>
<path d="M72.5813 21.8901L72.2887 22.2211L72.5813 22.5522L87.627 39.5782L83.0744 43.6065L68.6044 27.2358L68.6043 27.2358L64.1709 22.2211L68.6043 17.2065L68.2297 16.8753L68.6043 17.2065L83.0744 0.838627L87.6269 4.86418L72.5813 21.8901Z" stroke="#E29A12"/>
<path d="M54.0075 37.5272L54.0076 37.5274L56.633 43.9179H50.0584L47.2798 37.1476L47.2798 37.1475L43.4061 27.7069L43.4061 27.7069L43.4046 27.7033L43.3294 27.5238L43.3279 27.5204L40.7804 21.3161H45.2949C46.8583 21.3161 48.0327 20.8687 48.8986 20.1646C49.7576 19.4661 50.2758 18.5455 50.5881 17.6553C50.9002 16.7655 51.0145 15.8843 51.0522 15.2317C51.0711 14.9039 51.071 14.6299 51.0659 14.4363C51.0634 14.3394 51.0597 14.2623 51.0565 14.2084C51.0549 14.1815 51.0534 14.1603 51.0523 14.1453L51.0521 14.1427C51.0317 10.0114 47.5611 6.74509 43.4569 6.74509H27.4065L24.9084 0.664551H45.0943C47.4137 0.664551 49.5956 1.26981 51.4879 2.32964L51.4881 2.32974C53.637 3.53207 55.4202 5.3235 56.6233 7.48801L56.6236 7.48851C57.701 9.42159 58.3128 11.6539 58.3128 14.0306C58.3128 16.4073 57.701 18.6396 56.6236 20.5727L56.6233 20.5732C55.4202 22.7377 53.637 24.5292 51.4881 25.7315C51.0108 25.9986 50.5133 26.2374 50.0014 26.445L49.5355 26.6339L49.727 27.0988L50.1339 28.0865L50.1341 28.0871L51.2697 30.8538L51.2697 30.8538L54.0075 37.5272Z" stroke="#E29A12"/>
<path d="M204.174 37.5272L204.174 37.5274L206.799 43.9179H200.225L197.446 37.1476L197.446 37.1475L193.573 27.7069L193.573 27.7069L193.571 27.7033L193.496 27.5238L193.494 27.5204L190.947 21.3161H195.461C197.025 21.3161 198.199 20.8687 199.065 20.1646C199.924 19.4661 200.442 18.5455 200.754 17.6553C201.067 16.7655 201.181 15.8843 201.219 15.2317C201.238 14.9039 201.237 14.6299 201.232 14.4363C201.23 14.3394 201.226 14.2623 201.223 14.2084C201.221 14.1815 201.22 14.1603 201.219 14.1453L201.219 14.1427C201.198 10.0114 197.728 6.74509 193.623 6.74509H177.573L175.075 0.664551H195.261C197.58 0.664551 199.762 1.26981 201.654 2.32964L201.655 2.32974C203.803 3.53207 205.587 5.3235 206.79 7.48801L206.79 7.48851C207.867 9.42159 208.479 11.6539 208.479 14.0306C208.479 16.4073 207.867 18.6396 206.79 20.5727L206.79 20.5732C205.587 22.7377 203.803 24.5292 201.655 25.7315C201.177 25.9986 200.68 26.2374 200.168 26.445L199.702 26.6339L199.893 27.0988L200.3 28.0865L200.301 28.0871L201.436 30.8538L201.436 30.8538L204.174 37.5272Z" stroke="#E29A12"/>
<path d="M345.195 37.5272L345.195 37.5274L347.82 43.9179H341.246L338.467 37.1476L338.467 37.1475L334.593 27.7069L334.593 27.7069L334.592 27.7033L334.517 27.5238L334.515 27.5204L331.968 21.3161H336.482C338.045 21.3161 339.22 20.8687 340.086 20.1646C340.945 19.4661 341.463 18.5455 341.775 17.6553C342.087 16.7655 342.202 15.8843 342.239 15.2317C342.258 14.9039 342.258 14.6299 342.253 14.4363C342.251 14.3394 342.247 14.2623 342.244 14.2084C342.242 14.1815 342.241 14.1603 342.239 14.1453L342.239 14.1427C342.219 10.0114 338.748 6.74509 334.644 6.74509H318.594L316.096 0.664551H336.281C338.601 0.664551 340.783 1.26981 342.675 2.32964L342.675 2.32974C344.824 3.53207 346.607 5.3235 347.811 7.48801L347.811 7.48851C348.888 9.42159 349.5 11.6539 349.5 14.0306C349.5 16.4073 348.888 18.6396 347.811 20.5727L347.811 20.5732C346.607 22.7377 344.824 24.5292 342.675 25.7315C342.198 25.9986 341.7 26.2374 341.189 26.445L340.723 26.6339L340.914 27.0988L341.321 28.0865L341.321 28.0871L342.457 30.8538L342.457 30.8538L345.195 37.5272Z" stroke="#E29A12"/>
<path d="M17.6341 18.7827L7.31763 43.9182H0.745777L14.7357 9.8427L14.7358 9.84253L18.0969 1.64733L21.4606 9.84265L21.4606 9.84273L31.6978 34.7725H25.123L18.5592 18.7827L18.0967 17.6558L17.6341 18.7827Z" stroke="#E29A12"/>
<path d="M33.9255 40.1982L35.4509 43.9186H28.8788L27.3534 40.1982H33.9255Z" stroke="#E29A12"/>
<path d="M167.506 18.7827L157.189 43.9182H150.617L164.607 9.8427L164.607 9.84253L167.968 1.64733L171.332 9.84265L171.332 9.84273L181.569 34.7725H174.994L168.431 18.7827L167.968 17.6558L167.506 18.7827Z" stroke="#E29A12"/>
<path d="M183.797 40.1982L185.322 43.9186H178.75L177.225 40.1982H183.797Z" stroke="#E29A12"/>
<path d="M308.194 0.664551V6.74509H280.41L277.877 0.664551H308.194Z" stroke="#E29A12"/>
<path d="M277.627 25.3315V19.251H308.194V25.3315H277.627Z" stroke="#E29A12"/>
<path d="M308.194 37.8374V43.9179H277.877L280.41 37.8374H308.194Z" stroke="#E29A12"/>
<path d="M128.525 27.3066V43.9179H122.445V20.7261H137.581C141.441 20.7261 144.571 17.5963 144.571 13.7356C144.571 9.87492 141.441 6.74509 137.581 6.74509H125.228L122.695 0.664551H137.286C142.241 0.664551 146.551 3.41975 148.768 7.48414C149.78 9.34244 150.357 11.4702 150.357 13.7356C150.357 16.0009 149.78 18.1287 148.768 19.987C146.551 24.0514 142.241 26.8066 137.286 26.8066H129.025H128.525V27.3066Z" stroke="#E29A12"/>
</svg>
