<svg width="40" height="40" viewBox="0 0 40 40" fill="none" xmlns="http://www.w3.org/2000/svg">
<path d="M33.3333 8.33333C34.2538 8.33333 35 7.58714 35 6.66667C35 5.74619 34.2538 5 33.3333 5V8.33333ZM9.16666 8.33333L33.3333 8.33333V5L9.16666 5V8.33333ZM9.16666 16.6667L22.5 16.6667V13.3333L9.16666 13.3333V16.6667ZM6.66666 10.8333C6.66666 9.45262 7.78595 8.33333 9.16666 8.33333V5C5.945 5 3.33333 7.61167 3.33333 10.8333H6.66666ZM3.33333 10.8333C3.33333 14.055 5.945 16.6667 9.16666 16.6667V13.3333C7.78595 13.3333 6.66666 12.214 6.66666 10.8333H3.33333Z" fill="#222222"/>
<path d="M5 20L5 10.8333" stroke="#222222" stroke-width="3.33333"/>
<path d="M4.16667 14.1667H5L31.6667 14.1667L31.7215 14.1667C32.4603 14.1666 33.0968 14.1666 33.6065 14.2351C34.1528 14.3086 34.6764 14.4742 35.1011 14.8989C35.5258 15.3236 35.6914 15.8472 35.7649 16.3935C35.8334 16.9032 35.8334 17.5397 35.8333 18.2785L35.8333 18.3333V20V20.8333H35H30C27.6988 20.8333 25.8333 22.6988 25.8333 25C25.8333 27.3012 27.6988 29.1667 30 29.1667H35H35.8333V30V31.6667C35.8333 31.685 35.8333 31.7033 35.8333 31.7215C35.8334 32.4603 35.8334 33.0968 35.7649 33.6065C35.6914 34.1528 35.5258 34.6764 35.1011 35.1011L4.16667 14.1667ZM4.16667 14.1667V15M4.16667 14.1667V15M4.16667 15L4.16667 31.6667L4.16666 31.7215C4.16662 32.4603 4.16659 33.0968 4.23512 33.6065C4.30856 34.1528 4.47418 34.6764 4.8989 35.1011C5.32362 35.5258 5.84724 35.6914 6.39351 35.7649C6.90322 35.8334 7.53974 35.8334 8.27847 35.8333L8.33333 35.8333L31.6667 35.8333M4.16667 15L31.6667 35.8333M31.6667 35.8333C31.685 35.8333 31.7033 35.8333 31.7215 35.8333M31.6667 35.8333L31.7215 35.8333M31.7215 35.8333C32.4603 35.8334 33.0968 35.8334 33.6065 35.7649M31.7215 35.8333L33.6065 35.7649M33.6065 35.7649C34.1528 35.6914 34.6764 35.5258 35.1011 35.1011L33.6065 35.7649Z" fill="#222222" stroke="#222222" stroke-width="1.66667"/>
</svg>
