<svg width="31" height="26" viewBox="0 0 31 26" fill="none" xmlns="http://www.w3.org/2000/svg">
<path id="Vector" d="M30.6095 3.71293C29.506 4.19668 28.3248 4.52949 27.0798 4.68043C28.3501 3.91824 29.3213 2.71262 29.7845 1.27637C28.5929 1.97012 27.2748 2.47262 25.8732 2.75668C24.7557 1.56043 23.1582 0.807617 21.3854 0.807617C17.987 0.807617 15.2326 3.56105 15.2326 6.9548C15.2326 7.44324 15.2917 7.91199 15.3938 8.35637C10.2817 8.1173 5.74978 5.66105 2.71884 1.95043C2.18634 2.85418 1.88353 3.90418 1.88353 5.04699C1.88353 7.18543 2.97197 9.06043 4.61728 10.1629C3.61134 10.1339 2.66447 9.85543 1.83478 9.39699V9.47105C1.83478 12.4532 3.95353 14.9395 6.76603 15.5057C6.25322 15.6417 5.70572 15.7204 5.14978 15.7204C4.75509 15.7204 4.37822 15.682 4.00228 15.6126C4.79353 18.0539 7.05853 19.8314 9.75853 19.8848C7.65947 21.5301 4.99884 22.5107 2.13197 22.5107C1.64353 22.5107 1.15603 22.4873 0.666656 22.4282C3.40134 24.172 6.62916 25.192 10.1157 25.192C21.4285 25.192 27.6104 15.8217 27.6104 7.70668C27.6104 7.44793 27.6104 7.18449 27.5907 6.92012C28.7973 6.06043 29.8417 4.97105 30.6667 3.73637L30.6095 3.71293Z" fill="white"/>
</svg>
