<svg width="31" height="30" viewBox="0 0 31 30" fill="none" xmlns="http://www.w3.org/2000/svg">
<path id="Vector" d="M15.3333 7.5C11.1914 7.5 7.83331 10.8581 7.83331 15C7.83331 19.1419 11.1914 22.5 15.3333 22.5C19.4752 22.5 22.8333 19.1419 22.8333 15C22.8333 10.8581 19.4752 7.5 15.3333 7.5ZM15.3333 18.75C13.2652 18.75 11.5833 17.0681 11.5833 15C11.5833 12.9319 13.2652 11.25 15.3333 11.25C17.4014 11.25 19.0833 12.9319 19.0833 15C19.0833 17.0681 17.4014 18.75 15.3333 18.75ZM20.9583 0H9.70831C4.52769 0 0.333313 4.19438 0.333313 9.375V20.625C0.333313 25.8038 4.52769 30 9.70831 30H20.9583C26.1371 30 30.3333 25.8038 30.3333 20.625V9.375C30.3333 4.19438 26.1371 0 20.9583 0ZM26.5833 20.625C26.5833 23.7244 24.0577 26.25 20.9583 26.25H9.70831C6.60894 26.25 4.08331 23.7244 4.08331 20.625V9.375C4.08331 6.27563 6.60894 3.75 9.70831 3.75H20.9583C24.0577 3.75 26.5833 6.27563 26.5833 9.375V20.625ZM22.8333 5.625C21.7964 5.625 20.9583 6.46313 20.9583 7.5C20.9583 8.53687 21.7964 9.375 22.8333 9.375C23.8702 9.375 24.7083 8.53687 24.7083 7.5C24.7083 6.46313 23.8702 5.625 22.8333 5.625Z" fill="white"/>
</svg>
